HIERARCHY
ROOT Root
{
  OFFSET 0.0 0.0 0.0
  CHANNELS 6 Xposition Yposition Zposition Zrotation Yrotation Xrotation
  JOINT Hips
  {
    OFFSET 0.0 100.0 0.0
    CHANNELS 6 Xposition Yposition Zposition Zrotation Yrotation Xrotation
    JOINT Spine1
    {
      OFFSET 5.003913 -0.037094 -0.013727
      CHANNELS 3 Zrotation Yrotation Xrotation
      JOINT Spine2
      {
        OFFSET 7.125363 -1e-06 0.0
        CHANNELS 3 Zrotation Yrotation Xrotation
        JOINT Chest
        {
          OFFSET 7.594027 1e-06 0.0
          CHANNELS 3 Zrotation Yrotation Xrotation
          JOINT Neck1
          {
            OFFSET 26.313086 -0.460272 -0.181672
            CHANNELS 3 Zrotation Yrotation Xrotation
            JOINT Neck2
            {
              OFFSET 8.045911 0.0 0.0
              CHANNELS 3 Zrotation Yrotation Xrotation
              JOINT Head
              {
                OFFSET 6.432774 0.0 0.0
                CHANNELS 3 Zrotation Yrotation Xrotation
                JOINT HeadEnd
                {
                  OFFSET 16.169773 0.06451 0.00362
                  CHANNELS 3 Zrotation Yrotation Xrotation
                }
                JOINT Jaw
                {
                  OFFSET 0.108741 3.12938 0.002639
                  CHANNELS 3 Zrotation Yrotation Xrotation
                }
                JOINT LeftEye
                {
                  OFFSET 4.45173 8.166359 3.206392
                  CHANNELS 3 Zrotation Yrotation Xrotation
                }
                JOINT RightEye
                {
                  OFFSET 4.436895 8.135758 -3.222429
                  CHANNELS 3 Zrotation Yrotation Xrotation
                }
              }
            }
          }
          JOINT LeftShoulder
          {
            OFFSET 23.218927 5.195579 1.621656
            CHANNELS 3 Zrotation Yrotation Xrotation
            JOINT LeftArm
            {
              OFFSET 15.902118 2e-06 -2e-06
              CHANNELS 3 Zrotation Yrotation Xrotation
              JOINT LeftForeArm
              {
                OFFSET 28.739307 0.0 -1e-06
                CHANNELS 3 Zrotation Yrotation Xrotation
                JOINT LeftHand
                {
                  OFFSET 27.093981 -4e-06 0.0
                  CHANNELS 3 Zrotation Yrotation Xrotation
                  JOINT LeftHandThumb1
                  {
                    OFFSET 2.276781 3.380274 0.83384
                    CHANNELS 3 Zrotation Yrotation Xrotation
                    JOINT LeftHandThumb2
                    {
                      OFFSET 4.705309 -1e-06 -1e-06
                      CHANNELS 3 Zrotation Yrotation Xrotation
                      JOINT LeftHandThumb3
                      {
                        OFFSET 2.798515 0.0 3e-06
                        CHANNELS 3 Zrotation Yrotation Xrotation
                        JOINT LeftHandThumbEnd
                        {
                          OFFSET 3.180793 4e-06 -4e-06
                          CHANNELS 3 Zrotation Yrotation Xrotation
                        }
                      }
                    }
                  }
                  JOINT LeftHandIndex1
                  {
                    OFFSET 3.247786 2.352677 0.137192
                    CHANNELS 3 Zrotation Yrotation Xrotation
                    JOINT LeftHandIndex2
                    {
                      OFFSET 6.367095 1e-06 0.0
                      CHANNELS 3 Zrotation Yrotation Xrotation
                      JOINT LeftHandIndex3
                      {
                        OFFSET 3.662364 0.0 0.0
                        CHANNELS 3 Zrotation Yrotation Xrotation
                        JOINT LeftHandIndex4
                        {
                          OFFSET 2.329242 4e-06 -4e-06
                          CHANNELS 3 Zrotation Yrotation Xrotation
                          JOINT LeftHandIndexEnd
                          {
                            OFFSET 2.767823 1e-06 0.0
                            CHANNELS 3 Zrotation Yrotation Xrotation
                          }
                        }
                      }
                    }
                  }
                  JOINT LeftHandMiddle1
                  {
                    OFFSET 3.163612 0.945023 -0.406112
                    CHANNELS 3 Zrotation Yrotation Xrotation
                    JOINT LeftHandMiddle2
                    {
                      OFFSET 6.276789 3e-06 0.0
                      CHANNELS 3 Zrotation Yrotation Xrotation
                      JOINT LeftHandMiddle3
                      {
                        OFFSET 4.35652 -1e-06 4e-06
                        CHANNELS 3 Zrotation Yrotation Xrotation
                        JOINT LeftHandMiddle4
                        {
                          OFFSET 2.996877 0.0 8e-06
                          CHANNELS 3 Zrotation Yrotation Xrotation
                          JOINT LeftHandMiddleEnd
                          {
                            OFFSET 2.323256 3e-06 -4e-06
                            CHANNELS 3 Zrotation Yrotation Xrotation
                          }
                        }
                      }
                    }
                  }
                  JOINT LeftHandRing1
                  {
                    OFFSET 2.882606 -0.309162 0.107445
                    CHANNELS 3 Zrotation Yrotation Xrotation
                    JOINT LeftHandRing2
                    {
                      OFFSET 6.033198 0.0 4e-06
                      CHANNELS 3 Zrotation Yrotation Xrotation
                      JOINT LeftHandRing3
                      {
                        OFFSET 4.350578 3e-06 0.0
                        CHANNELS 3 Zrotation Yrotation Xrotation
                        JOINT LeftHandRing4
                        {
                          OFFSET 2.651321 2e-06 -7e-06
                          CHANNELS 3 Zrotation Yrotation Xrotation
                          JOINT LeftHandRingEnd
                          {
                            OFFSET 1.937663 1e-06 -4e-06
                            CHANNELS 3 Zrotation Yrotation Xrotation
                          }
                        }
                      }
                    }
                  }
                  JOINT LeftHandPinky1
                  {
                    OFFSET 2.865315 -1.525436 0.575687
                    CHANNELS 3 Zrotation Yrotation Xrotation
                    JOINT LeftHandPinky2
                    {
                      OFFSET 5.54936 1e-06 -8e-06
                      CHANNELS 3 Zrotation Yrotation Xrotation
                      JOINT LeftHandPinky3
                      {
                        OFFSET 3.070974 0.0 -4e-06
                        CHANNELS 3 Zrotation Yrotation Xrotation
                        JOINT LeftHandPinky4
                        {
                          OFFSET 1.549672 1e-06 0.0
                          CHANNELS 3 Zrotation Yrotation Xrotation
                          JOINT LeftHandPinkyEnd
                          {
                            OFFSET 1.952123 0.0 0.0
                            CHANNELS 3 Zrotation Yrotation Xrotation
                          }
                        }
                      }
                    }
                  }
                }
              }
            }
          }
          JOINT RightShoulder
          {
            OFFSET 23.161716 5.296122 -1.380114
            CHANNELS 3 Zrotation Yrotation Xrotation
            JOINT RightArm
            {
              OFFSET -16.027195 -2e-06 1.1e-05
              CHANNELS 3 Zrotation Yrotation Xrotation
              JOINT RightForeArm
              {
                OFFSET -28.736639 4e-06 2e-06
                CHANNELS 3 Zrotation Yrotation Xrotation
                JOINT RightHand
                {
                  OFFSET -27.133619 6e-06 0.0
                  CHANNELS 3 Zrotation Yrotation Xrotation
                  JOINT RightHandThumb1
                  {
                    OFFSET -2.274328 -3.351035 -0.83067
                    CHANNELS 3 Zrotation Yrotation Xrotation
                    JOINT RightHandThumb2
                    {
                      OFFSET -4.703594 -3e-06 2e-06
                      CHANNELS 3 Zrotation Yrotation Xrotation
                      JOINT RightHandThumb3
                      {
                        OFFSET -2.794935 -4e-06 -3e-06
                        CHANNELS 3 Zrotation Yrotation Xrotation
                        JOINT RightHandThumbEnd
                        {
                          OFFSET -3.183852 4e-06 1e-06
                          CHANNELS 3 Zrotation Yrotation Xrotation
                        }
                      }
                    }
                  }
                  JOINT RightHandIndex1
                  {
                    OFFSET -3.253496 -2.33755 -0.127667
                    CHANNELS 3 Zrotation Yrotation Xrotation
                    JOINT RightHandIndex2
                    {
                      OFFSET -6.344434 0.0 0.0
                      CHANNELS 3 Zrotation Yrotation Xrotation
                      JOINT RightHandIndex3
                      {
                        OFFSET -3.654871 0.0 -8e-06
                        CHANNELS 3 Zrotation Yrotation Xrotation
                        JOINT RightHandIndex4
                        {
                          OFFSET -2.327586 -1e-06 0.0
                          CHANNELS 3 Zrotation Yrotation Xrotation
                          JOINT RightHandIndexEnd
                          {
                            OFFSET -2.770001 3e-06 8e-06
                            CHANNELS 3 Zrotation Yrotation Xrotation
                          }
                        }
                      }
                    }
                  }
                  JOINT RightHandMiddle1
                  {
                    OFFSET -3.168223 -0.944764 0.411762
                    CHANNELS 3 Zrotation Yrotation Xrotation
                    JOINT RightHandMiddle2
                    {
                      OFFSET -6.266691 -1e-06 -4e-06
                      CHANNELS 3 Zrotation Yrotation Xrotation
                      JOINT RightHandMiddle3
                      {
                        OFFSET -4.348901 0.0 0.0
                        CHANNELS 3 Zrotation Yrotation Xrotation
                        JOINT RightHandMiddle4
                        {
                          OFFSET -3.00024 2e-06 -4e-06
                          CHANNELS 3 Zrotation Yrotation Xrotation
                          JOINT RightHandMiddleEnd
                          {
                            OFFSET -2.321477 -4e-06 -4e-06
                            CHANNELS 3 Zrotation Yrotation Xrotation
                          }
                        }
                      }
                    }
                  }
                  JOINT RightHandRing1
                  {
                    OFFSET -2.885654 0.293261 -0.119232
                    CHANNELS 3 Zrotation Yrotation Xrotation
                    JOINT RightHandRing2
                    {
                      OFFSET -6.032835 -1e-06 -4e-06
                      CHANNELS 3 Zrotation Yrotation Xrotation
                      JOINT RightHandRing3
                      {
                        OFFSET -4.33881 0.0 -4e-06
                        CHANNELS 3 Zrotation Yrotation Xrotation
                        JOINT RightHandRing4
                        {
                          OFFSET -2.654903 -4e-06 -4e-06
                          CHANNELS 3 Zrotation Yrotation Xrotation
                          JOINT RightHandRingEnd
                          {
                            OFFSET -1.935122 0.0 4e-06
                            CHANNELS 3 Zrotation Yrotation Xrotation
                          }
                        }
                      }
                    }
                  }
                  JOINT RightHandPinky1
                  {
                    OFFSET -2.866241 1.503904 -0.60527
                    CHANNELS 3 Zrotation Yrotation Xrotation
                    JOINT RightHandPinky2
                    {
                      OFFSET -5.553177 -2e-06 0.0
                      CHANNELS 3 Zrotation Yrotation Xrotation
                      JOINT RightHandPinky3
                      {
                        OFFSET -3.062664 -1e-06 -4e-06
                        CHANNELS 3 Zrotation Yrotation Xrotation
                        JOINT RightHandPinky4
                        {
                          OFFSET -1.546529 2e-06 4e-06
                          CHANNELS 3 Zrotation Yrotation Xrotation
                          JOINT RightHandPinkyEnd
                          {
                            OFFSET -1.952341 0.0 -4e-06
                            CHANNELS 3 Zrotation Yrotation Xrotation
                          }
                        }
                      }
                    }
                  }
                }
              }
            }
          }
        }
      }
    }
    JOINT LeftLeg
    {
      OFFSET -8.443107 2.567604 10.043214
      CHANNELS 3 Zrotation Yrotation Xrotation
      JOINT LeftShin
      {
        OFFSET 43.229198 1e-06 -1e-06
        CHANNELS 3 Zrotation Yrotation Xrotation
        JOINT LeftFoot
        {
          OFFSET 42.298611 1e-06 1e-06
          CHANNELS 3 Zrotation Yrotation Xrotation
          JOINT LeftToeBase
          {
            OFFSET 14.165858 1e-06 0.0
            CHANNELS 3 Zrotation Yrotation Xrotation
            JOINT LeftToeEnd
            {
              OFFSET 6.7141 -0.234461 0.0
              CHANNELS 3 Zrotation Yrotation Xrotation
            }
          }
        }
      }
    }
    JOINT RightLeg
    {
      OFFSET -8.303923 2.592729 -10.047278
      CHANNELS 3 Zrotation Yrotation Xrotation
      JOINT RightShin
      {
        OFFSET -43.369682 0.0 1e-06
        CHANNELS 3 Zrotation Yrotation Xrotation
        JOINT RightFoot
        {
          OFFSET -42.260784 4e-06 2e-06
          CHANNELS 3 Zrotation Yrotation Xrotation
          JOINT RightToeBase
          {
            OFFSET -14.222245 -2e-06 -1e-06
            CHANNELS 3 Zrotation Yrotation Xrotation
            JOINT RightToeEnd
            {
              OFFSET -6.660062 0.232574 -2e-06
              CHANNELS 3 Zrotation Yrotation Xrotation
            }
          }
        }
      }
    }
  }
}
MOTION
Frames: 4
Frame Time: 0.03333333333333333
0.0 0.0 0.0 0.0 -0.0 0.0 -1.312068 48.555157 6.251393 91.735085 -65.395546 88.630829 9.133782 -1.347218 -0.950121 -5.258198 -1.158652 -0.180481 17.653988 -0.09309 -1.57998 16.822111 0.048584 3.602847 -2.864567 -0.237104 1.864537 -29.309032 1.582741 1.02439 6e-06 0.0 0.0 -0.152263 -0.024507 0.016046 -0.136545 0.049973 0.026484 -0.148156 -0.098878 0.001501 -46.203037 -63.375652 48.595306 94.322884 0.435705 -24.88106 7.847357 -0.297197 -0.026011 50.960945 74.430847 51.085876 17.636623 -26.322737 52.411209 -19.466665 -14.3956 29.410395 -0.0 -8.774822 -2e-06 16.252972 -17.909775 6.293901 -0.609776 -1.795654 -3.889328 -4.807088 -11.046813 -2.937851 4e-06 -20.976021 -1e-06 -5.019971 -25.033564 -4.031881 6e-06 -0.0 0.0 -10.634535 -5.686971 -3.565588 10.573275 -17.922955 -3.113902 3e-06 -13.821211 1e-06 -0.501777 -31.181507 -4.027017 -10.397058 -58.848042 7.014787 -13.982712 -7.150198 -2.875042 13.772727 -8.401492 -3.218243 0.347734 -34.211552 0.771654 -0.963029 -17.73337 2.621019 -0.0 0.0 0.0 -17.346418 -20.095221 -4.20178 21.757561 -1.638374 3.866427 1e-06 -6.338825 1e-06 -1.697589 -22.591749 -6.194007 -0.0 -7e-06 -2e-06 145.42363 -67.323845 35.321301 103.518272 1.975025 -24.156467 2.859037 -0.765766 -0.014185 50.213131 81.107437 47.666702 22.182114 -20.375893 49.933308 -16.701815 -16.743528 28.476534 -2e-06 -12.690602 0.0 16.518509 -17.474094 2.641497 -0.105919 -1.513856 -4.275881 -5.039041 -5.612872 -2.953555 4e-06 -11.020525 -2e-06 -6.1113 -15.895334 -3.84047 -0.0 -2e-06 -0.0 -10.283369 -5.680288 -4.341837 11.028292 -11.302406 -2.372633 -1.384269 -14.238582 -6.320121 -0.625441 -26.924194 -3.8276 -4.35187 -49.106686 -4.116971 -13.708523 -7.363476 -3.720938 18.14115 -14.052741 -3.242676 6e-06 -18.78727 -2e-06 -0.429713 -8.456045 2.555503 -0.0 2e-06 0.0 -15.923536 -20.094484 -5.473581 30.419214 -7.190823 1.735925 1e-06 -8.162928 -1e-06 -1.861903 -22.861473 -6.167943 1e-06 -2e-06 -0.0 111.527328 -10.081693 2.363538 114.55365 -0.540274 0.331238 -92.906052 11.497221 -0.647949 -36.358707 1.864303 1.243094 -0.999997 -0.0 0.0 -66.716476 -1.847138 3.521347 115.228531 0.395088 0.192992 -99.133179 3.227755 2.572853 -45.405643 1.034525 1.149428 -1.000005 0.0 0.0 
0.0 0.0 0.0 0.0 -0.0 0.0 -1.262735 48.542171 6.504065 91.335609 -65.487144 88.938385 9.051023 -1.294496 -0.914366 -5.332836 -1.132181 -0.123634 17.720421 -0.062461 -1.463647 16.86381 0.076075 3.482956 -2.867615 -0.273076 1.885257 -29.226803 1.690068 1.002396 5e-06 0.0 -0.0 -0.157292 -0.057025 0.022076 -0.101184 0.00793 0.039395 -0.117546 -0.119469 -0.003082 -46.305191 -63.412876 48.982334 94.617996 0.671034 -25.505615 7.635759 -0.294904 -0.031286 53.063522 73.773842 52.835892 17.636629 -26.322731 52.411186 -19.466663 -14.395596 29.410385 -1e-06 -8.774821 -2e-06 16.237091 -17.929743 6.31403 -0.609776 -1.795653 -3.889327 -4.807089 -11.046811 -2.93785 4e-06 -20.976021 0.0 -5.019971 -25.03356 -4.031879 6e-06 -2e-06 -0.0 -10.634535 -5.686971 -3.565587 10.573274 -17.922951 -3.1139 2e-06 -13.821211 1e-06 -0.501779 -31.181505 -4.027014 -10.291254 -58.935497 6.958757 -13.982714 -7.150198 -2.875041 13.77273 -8.401491 -3.218241 0.347733 -34.211552 0.771656 -0.963029 -17.73337 2.62102 0.0 1e-06 -0.0 -17.346418 -20.095219 -4.201779 21.757557 -1.638374 3.866428 1e-06 -6.338825 1e-06 -1.69759 -22.591749 -6.194005 0.0 -7e-06 -2e-06 145.25563 -67.363808 35.710758 103.492844 1.986004 -24.323307 2.766761 -0.748631 -0.011241 50.500462 80.590691 47.717026 22.182121 -20.375895 49.933308 -16.701811 -16.743528 28.476528 -1e-06 -12.690601 -2e-06 16.522478 -17.395792 2.630893 -0.10592 -1.513856 -4.275881 -5.039041 -5.612872 -2.953557 4e-06 -11.020523 -2e-06 -6.111299 -15.89533 -3.84047 -1e-06 -1e-06 1e-06 -10.283371 -5.680288 -4.341837 11.028296 -11.302406 -2.372633 -1.384269 -14.238584 -6.320122 -0.625439 -26.924192 -3.827601 -4.314765 -49.174179 -4.034694 -13.708526 -7.363476 -3.720939 18.141148 -14.052739 -3.242673 7e-06 -18.78727 -1e-06 -0.429712 -8.456047 2.555503 -0.0 1e-06 0.0 -15.923539 -20.094482 -5.473584 30.41921 -7.190825 1.735927 1e-06 -8.162925 -0.0 -1.861902 -22.861471 -6.167943 -1e-06 -2e-06 -0.0 111.717476 -10.211085 2.350343 114.275597 -0.584499 0.321545 -92.733978 11.522893 -0.560082 -36.192993 1.885653 1.183509 -0.999997 -0.0 -0.0 -66.474464 -1.706913 3.36207 114.832123 0.344406 0.165115 -98.825943 3.24703 2.565912 -44.958553 1.030296 1.163932 -1.000004 0.0 0.0 
0.0 0.0 0.0 0.0 -0.0 0.0 -1.220431 48.541092 6.737491 91.114738 -65.527603 89.145981 8.967972 -1.264536 -0.885272 -5.414458 -1.098935 -0.056943 17.810152 -0.055143 -1.406601 16.95071 0.166237 3.363906 -2.875858 -0.331724 1.892784 -29.238691 1.680925 0.988348 5e-06 0.0 -0.0 -0.156139 -0.077913 0.025845 -0.118752 -0.018464 0.038969 -0.129492 -0.133365 0.00031 -46.052811 -63.443058 48.92712 94.797066 0.839001 -25.564877 7.494596 -0.313906 -0.032585 53.21534 73.546989 52.659576 17.636625 -26.322744 52.411213 -19.46666 -14.395598 29.410395 -0.0 -8.774822 -2e-06 16.230112 -17.917051 6.279365 -0.609777 -1.795654 -3.889328 -4.80709 -11.046811 -2.93785 3e-06 -20.976021 0.0 -5.019972 -25.033562 -4.031881 6e-06 -0.0 0.0 -10.634534 -5.686971 -3.565588 10.573274 -17.922951 -3.1139 2e-06 -13.821208 2e-06 -0.501779 -31.181505 -4.027015 -10.146886 -58.962395 6.868253 -13.982714 -7.150199 -2.875043 13.772728 -8.401492 -3.218242 0.347732 -34.211555 0.771656 -0.96303 -17.733372 2.621021 0.0 0.0 0.0 -17.346418 -20.095221 -4.201783 21.757557 -1.638372 3.866428 1e-06 -6.338824 1e-06 -1.697589 -22.591745 -6.194006 -0.0 -7e-06 -2e-06 145.46637 -67.412544 35.717247 103.283264 1.957749 -24.481596 2.747217 -0.774613 -0.009827 51.170547 80.313248 48.54945 22.182116 -20.3759 49.933338 -16.701817 -16.74353 28.47654 -4e-06 -12.690603 -0.0 16.52552 -17.297012 2.639671 -0.105919 -1.513856 -4.275884 -5.039042 -5.612873 -2.953558 4e-06 -11.020528 -2e-06 -6.111299 -15.895334 -3.840472 -0.0 -1e-06 1e-06 -10.283373 -5.68029 -4.34184 11.028297 -11.302407 -2.372633 -1.384268 -14.238583 -6.320124 -0.625439 -26.924198 -3.827602 -4.267998 -49.163734 -3.984345 -13.708526 -7.363477 -3.720942 18.141153 -14.05274 -3.242676 7e-06 -18.78727 -2e-06 -0.429713 -8.456045 2.555504 0.0 2e-06 -0.0 -15.923539 -20.094486 -5.473588 30.419222 -7.190829 1.735926 2e-06 -8.162925 1e-06 -1.8619 -22.861475 -6.167945 -0.0 -3e-06 -1e-06 111.960243 -10.246248 2.300978 114.013145 -0.617157 0.32355 -92.77668 11.46589 -0.575962 -36.22921 1.895224 1.162829 -0.999997 -0.0 0.0 -66.19101 -1.631048 3.309374 114.495834 0.323569 0.172846 -98.745506 3.230147 2.451852 -44.762573 1.024191 1.173056 -1.000005 -0.0 0.0 
0.0 0.0 0.0 0.0 -0.0 0.0 -1.19432 48.539959 6.898561 90.90844 -65.585289 89.389778 8.889948 -1.242833 -0.866212 -5.485907 -1.082772 -0.022143 17.844479 0.002088 -1.390517 17.001867 0.233128 3.273085 -2.88111 -0.380682 1.886655 -29.330616 1.667053 0.987445 6e-06 -0.0 -0.0 -0.154432 -0.090337 0.027424 -0.160165 -0.031677 0.029094 -0.161539 -0.145111 0.010629 -45.746315 -63.47271 48.773823 94.921844 0.950576 -25.561224 7.410918 -0.344628 -0.040328 53.050251 73.466972 52.499352 17.636635 -26.322729 52.411179 -19.46666 -14.395597 29.410385 -1e-06 -8.774821 -3e-06 16.207006 -17.895443 6.258594 -0.609776 -1.795654 -3.889327 -4.807088 -11.046809 -2.93785 4e-06 -20.976019 -0.0 -5.01997 -25.033556 -4.031881 6e-06 -2e-06 1e-06 -10.634534 -5.686972 -3.565587 10.573272 -17.922951 -3.1139 3e-06 -13.821208 1e-06 -0.501777 -31.181505 -4.027016 -10.08882 -58.995049 6.821331 -13.982714 -7.150198 -2.875041 13.772729 -8.401491 -3.218241 0.347735 -34.211544 0.771653 -0.963028 -17.73337 2.621019 0.0 0.0 -0.0 -17.34642 -20.095221 -4.20178 21.757557 -1.638375 3.866429 2e-06 -6.338824 0.0 -1.697589 -22.591742 -6.194006 0.0 -7e-06 -2e-06 145.747391 -67.43219 35.558422 103.082375 1.790139 -24.604265 2.804229 -0.761159 -0.009728 51.476147 80.197716 49.137924 22.182116 -20.375891 49.933308 -16.701807 -16.743525 28.476519 -2e-06 -12.6906 -1e-06 16.55517 -17.22793 2.658376 -0.10592 -1.513856 -4.275879 -5.039041 -5.612872 -2.953556 4e-06 -11.020524 -1e-06 -6.111298 -15.895334 -3.840469 -0.0 -0.0 1e-06 -10.283369 -5.680288 -4.341837 11.028293 -11.302404 -2.372632 -1.384269 -14.238583 -6.32012 -0.62544 -26.924191 -3.8276 -4.227835 -49.190899 -3.926993 -13.708525 -7.363475 -3.720938 18.141148 -14.052739 -3.242673 6e-06 -18.787268 -2e-06 -0.429712 -8.456045 2.555502 0.0 1e-06 0.0 -15.923534 -20.094482 -5.473581 30.41921 -7.190826 1.735927 4e-06 -8.162925 -0.0 -1.861902 -22.861475 -6.167943 -1e-06 -2e-06 -1e-06 112.080795 -10.222996 2.327997 113.850937 -0.635839 0.323661 -92.943527 11.427615 -0.633626 -36.443565 1.897677 1.16412 -0.999997 -0.0 0.0 -66.008301 -1.607306 3.276627 114.273483 0.349564 0.18661 -98.795639 3.163786 2.297787 -44.801598 1.020613 1.176284 -1.000003 0.0 -0.0 
